<svg xmlns="http://www.w3.org/2000/svg" viewBox="0 0 723.83 430.97"><defs><style>.cls-1{fill:#58595b;}.cls-2{fill:#eb2127;}.cls-3{fill:#e6e6e5;}.cls-4{fill:#efa52d;}.cls-5{fill:#676767;}.cls-6{fill:#a9abac;}.cls-7{fill:#de6c27;}.cls-8{fill:#bc2226;}.cls-9{fill:#4b4c4d;}.cls-10{fill:#a7a9ab;}.cls-11{fill:#818181;}.cls-12{fill:#e6e5e5;}.cls-13{fill:#f3f3f3;}.cls-14{fill:#fffefd;}.cls-15{fill:#fff;}</style></defs><g id="Layer_2" data-name="Layer 2"><g id="Layer_1-2" data-name="Layer 1"><path class="cls-1" d="M361.8,430.85H95.37c-3.83,0-7.65.08-10.92-2.5-3.57-2.84-4.64-6.51-4.63-11,.09-43,0-86,.17-129,0-4.23-1.09-5.29-5.2-5.1-7.82.35-15.66.11-23.49.09-9.27,0-13.71-4.41-13.76-13.77-.06-11-.15-22,.06-33,.07-3.46-.84-4.6-4.39-4.44-6.65.28-13.33.14-20,.06C4.75,232.18,0,227.35,0,218.88q0-87,0-174c0-9.28,4.34-13.54,13.82-13.54,59.32,0,118.63-.09,178,.13,5.42,0,6.76-1.57,6.26-6.56A108.2,108.2,0,0,1,198,12.47c.11-7.16,4.46-11.79,11.6-12.39,1.49-.13,3-.06,4.5-.06H510c12,0,15.89,3.83,15.89,15.67,0,3.67.32,7.37-.09,11-.47,4.18,1.3,4.77,5,4.77q89.22-.16,178.45-.08c10.69,0,14.6,4,14.6,14.78v172c0,9.51-4.54,14.14-13.94,14.18-6.66,0-13.33.14-20-.05-2.85-.08-3.69.81-3.65,3.65.15,11.16.1,22.32,0,33.49,0,9.71-4.38,14-14,14.05-7.83,0-15.67.2-23.49-.09-3.79-.14-5,.76-5,4.81.17,42.49-.13,85,.27,127.47.11,11.27-6.39,15.37-15.39,15.36Q495.26,430.68,361.8,430.85Z"/><path class="cls-2" d="M711.78,43.54q0,86.15.13,172.3c0,3.39-.72,4.54-4.33,4.49-11-.15-21.94.13-32.92.23a5.31,5.31,0,0,1-1.7,1.07c-2.44.72-5,.52-7.45.52q-303.58,0-607.19,0c-2.49,0-5,.2-7.45-.51a5.34,5.34,0,0,1-1.7-1.08c-11-.1-22-.3-32.92-.26-3,0-4.34-.39-4.34-4q.21-86.4.14-172.81c1.54-1,3.25-.52,4.88-.52q94.21,0,188.42,0c5.4,0,6.24.56,6.25,5.83,0,45.48.34,91-.12,136.44.64,10.47.64,10.47,11.37,10.47H501.4c10.3,0,10.3,0,11-10.37a47.73,47.73,0,0,1-.22-5.48q0-62.91,0-125.81c0-1.33,0-2.66,0-4,.17-6.74.51-7.09,7-7.09q93.6,0,187.21,0C708.2,43,710.08,42.49,711.78,43.54Z"/><path class="cls-3" d="M631.82,283.36c0,43.3,0,86.6.13,129.9,0,4.31-1.45,5.21-5.44,5.21q-134.16-.15-268.3,0c-4.07,0-5.44-1-5.38-5.27.22-17.65.11-35.3.05-52.95,0-1.81.95-4.21-2-4.91,3.5-2.77,4.73-6.2,4.71-10.82,0-5.1-.46-9.35-5.54-11.81-1.22-7.42-.41-14.88-.54-22.32s0-14.91,0-22.37c0-3.43,1.11-6,4.93-6.11,11.09-.36,22.19-.4,33.29,0a5.39,5.39,0,0,1,3.21,1.2c2.15,2.55,1.66,5.66,1.67,8.6.06,20,0,39.93,0,59.9,0,6.76.28,7,7,7q73.62,0,147.25,0c7,0,7.24-.23,7.25-7.32,0-20,0-39.93,0-59.9,0-2.79-.37-5.7,1.51-8.17,2.12-1.74,4.68-1.56,7.15-1.57q30.93-.08,61.86,0C627.19,281.72,629.76,281.51,631.82,283.36Z"/><path class="cls-4" d="M674.11,234.67c0,11,0,21.94.19,32.91.06,3.07-.92,3.93-3.95,3.91-12.8-.1-25.6,0-38.39.1a8,8,0,0,1-5.18,1.5c-23.63,0-47.26.28-70.89-.14a73.32,73.32,0,0,1-8,.2H397.57a50.06,50.06,0,0,1-6.48-.21c-13.73.28-27.45.32-41.18,0-26.82.44-53.64.11-80.46.18-6.32,0-12.65.27-19-.19q-2,0-3.93,0c-26,.46-52.08.11-78.13.19-6.46,0-12.94.25-19.4-.18-17.32.41-34.64.14-51.95.15a8,8,0,0,1-5.18-1.5c-12.63-.06-25.26-.23-37.89-.09-3.45,0-4.56-.89-4.47-4.42.26-10.79.17-21.6.21-32.4a3.73,3.73,0,0,1,1.53-1.28c2.41-.89,4.93-.69,7.41-.69q303.25,0,606.49,0c2.49,0,5-.2,7.43.67A3.72,3.72,0,0,1,674.11,234.67Z"/><path class="cls-3" d="M210,185.37c0-45.47-.12-90.94,0-136.41,0-4.51-1.06-5.69-5.63-5.68q-93.7.26-187.39.12c-1.66,0-3.32.09-5,.13,1.77-1.94,4.09-1,6.13-1q92.7-.07,185.38,0c6.39,0,6.39,0,6.39-6.58,0-6.33.18-12.66-.07-19-.14-3.61,1.23-4.69,4.64-4.47,3.65.23,7.33.05,11,.05H507.32c6.55,0,6.56,0,6.56,6.42,0,5.83.3,11.68-.09,17.48-.32,4.73,1.07,6.25,6,6.19,24-.25,48-.11,72-.11q57.21,0,114.43,0c1.88,0,4-.83,5.62,1-15,0-30-.14-45-.14-49.3,0-98.61.05-147.91-.11-4.18,0-5.14,1-5.13,5.17.14,45.63.05,91.27,0,136.91-2.32,2.2-5.27,1.78-8,1.78q-33.21.07-66.42,0-109.87,0-219.75,0C216.33,187.14,212.85,187.88,210,185.37Z"/><path class="cls-3" d="M148.68,355.45c-3.63,0-2.68,2.7-2.68,4.65-.05,17.49-.17,35,.06,52.46.06,4.46-1,6.06-5.75,5.95-14.31-.32-28.64-.24-43,0-4,.06-5.48-.87-5.46-5.2.16-43.3.11-86.6.12-129.91a7.11,7.11,0,0,1,5.1-1.57q23.6-.14,47.2,0a10,10,0,0,1,3.89.7,3.55,3.55,0,0,1,1.46,1.28,2.86,2.86,0,0,1,.4.9c.86,16,1.17,31.95-.15,47.9a3.92,3.92,0,0,1-.52.82c-1.52,1.89-5.34.7-5.71,3.94a57,57,0,0,0,0,13.25c.35,2.79,3.45,2.08,4.92,3.49A.91.91,0,0,1,148.68,355.45Z"/><path class="cls-5" d="M350.28,355.25c0,18.82-.11,37.64.06,56.46,0,3.61-.72,4.8-4.61,4.78q-45.72-.27-91.44,0c-4,0-4.57-1.27-4.54-4.8.17-18.82.09-37.65.09-56.47,1.93-1.71,4.33-1.52,6.63-1.52q43.59-.07,87.19,0C346,353.7,348.36,353.51,350.28,355.25Z"/><path class="cls-5" d="M247.05,355.22c0,19-.06,38,.07,57,0,3.1-.59,4.29-4,4.27q-45-.21-90,0c-3.75,0-4.23-1.33-4.22-4.58.05-18.81-.11-37.63-.21-56.45l.36-.21c1.92-1.75,4.33-1.53,6.63-1.53q42.38-.07,84.75,0C242.72,353.71,245.12,353.51,247.05,355.22Z"/><path class="cls-2" d="M247.05,355.22l-98,0c-7.07-1.09-7.07-1.09-7.07-8.74v-5c0-7.59,0-7.59,7.05-8.2a7,7,0,0,1,5.11-1.59c30.76,0,61.51-.3,92.26.14,1.31,0,2.61,0,3.92,0,28.47-.44,56.94-.11,85.41-.17,4.47,0,9-.52,13.43.55a5.36,5.36,0,0,1,1.65,1.08c5.37-.65,7.19,1.75,6.32,6.95a22.29,22.29,0,0,0,0,6.87c.72,5-.25,8.41-6.23,8.16l-.29-.12-.31,0-100.44,0A2.69,2.69,0,0,0,247.05,355.22Z"/><path class="cls-6" d="M555.81,271.59H632c-.05,3.92-.09,7.85-.14,11.77l-75.82.05-.68-.6C554,279,553.54,275.24,555.81,271.59Z"/><path class="cls-6" d="M148.93,283.45,92,283.36c0-3.92-.09-7.85-.13-11.77H149C151.28,275.56,151.4,279.52,148.93,283.45Z"/><path class="cls-4" d="M49.17,220.56a1,1,0,0,1,.8,0c2.51,4.54,2.33,9.12.21,13.73l-.45.43C48.4,230,49.37,225.27,49.17,220.56Z"/><path class="cls-4" d="M673.86,220.52a1,1,0,0,1,.8,0c-.19,4.71.77,9.45-.55,14.11l-.45-.42C671.53,229.64,671.36,225.06,673.86,220.52Z"/><path class="cls-7" d="M673.86,220.52q-.11,6.87-.2,13.73c-2,.05-4,.16-6,.16H56.16c-2,0-4-.11-6-.16L50,220.52c1.67,0,3.33-.09,5-.09h613.9C670.53,220.43,672.2,220.49,673.86,220.52Z"/><path class="cls-8" d="M210,185.37l253.81.07q25,0,50-.07c.3,12.08.3,12.08-11.78,12.08q-142.09,0-284.2,0c-8.93,0-7.76,1.15-7.86-8.07C209.94,188,210,186.7,210,185.37Z"/><path class="cls-5" d="M556,283.41c-.06,24-.24,47.91-.07,71.87,0,4.39-1,5.48-5.45,5.46q-77.12-.24-154.24,0c-4.38,0-5.52-1.05-5.49-5.46.16-24,0-47.91-.12-71.86l.73-.69c2.31-1.26,4.85-1,7.33-1q74.43,0,148.86,0c2.76,0,5.73-.56,8.05,1.7Z"/><path class="cls-6" d="M350.8,333.36l-.46.11-.45-.14c-1.39-1.42-1.6-3.23-1.61-5.06,0-14.86-.28-29.71.13-44.57.26-4.09-1.46-8.48,1.79-12.13h40.66c2.51,3.9,2.23,7.86.27,11.86l-.25,0-.25,0c-11.82,0-23.65.15-35.46-.09-3.69-.08-4.44,1.23-4.41,4.57C350.89,303.05,350.81,318.21,350.8,333.36Z"/><path class="cls-9" d="M391.13,283.44l-.27-11.86q50.33-.07,100.66-.15c21.43,0,42.86.1,64.29.16l-.21,11.84Z"/><path class="cls-9" d="M350.2,271.57l-.36,11.82c-1.86,1.81-4.25,1.72-6.57,1.72q-43.44.06-86.88,0c-2.16,0-4.35,0-6.27-1.26a11.56,11.56,0,0,1-.22-12.27Z"/><path class="cls-9" d="M148.93,283.45c0-4,.07-7.91.1-11.86h98a11.61,11.61,0,0,1-.14,12.2c-2.21,1.53-4.77,1.34-7.25,1.34q-41.47.06-82.95,0c-2.63,0-5.4.34-7.56-1.76Z"/><path class="cls-10" d="M246.72,283.43l.27-11.85h2.91l.27,11.85-.46.48a3,3,0,0,1-1.92.26A2.17,2.17,0,0,1,246.72,283.43Z"/><path class="cls-11" d="M362.17,29.36H484.08c11.09,0,15.8,4.71,15.81,15.69q0,54,0,107.91c0,10.17-5.1,15.32-15.32,15.33H239.25c-10.2,0-15.3-5.17-15.3-15.34V44.54c0-10.33,4.84-15.16,15.32-15.17Q300.73,29.34,362.17,29.36Z"/><path class="cls-5" d="M149.09,283.36l97.63.07a.72.72,0,0,0,.5,0c1.26,1.52,1.22,3.35,1.22,5.18v39.16c0,2,.11,4-1.46,5.58H149Q149.07,308.35,149.09,283.36Z"/><path class="cls-5" d="M250.17,283.43l99.67,0q0,25,.05,49.94l-100,0c-1.42-1.43-1.46-3.25-1.46-5.09q0-20.07,0-40.15a6.87,6.87,0,0,1,1.22-4.68A.72.72,0,0,0,250.17,283.43Z"/><path class="cls-12" d="M249.67,283.43l.24,49.92H247l.24-49.92Z"/><path class="cls-13" d="M361.69,161.33H245.23c-11.1,0-15.94-4.66-16-15.69q-.09-46.72,0-93.47c0-11.48,4.55-15.85,16.16-15.85H478.36c11.83,0,16.2,4.37,16.21,16.3q.06,46.25,0,92.48c0,11.66-4.69,16.23-16.41,16.23Z"/><path class="cls-2" d="M282.9,137.69l-42.38-.13c-2,0-3.87.41-3.85-2.83.18-24.76.2-49.53.27-74.29,1.8-1.61,4-1.38,6.17-1.38q82.18,0,164.38,0a21.37,21.37,0,0,1,3.49.17c1.15.19,2.51.29,2.9,1.57s-.63,2.18-1.48,2.93c-7.93,7-14.13,15.49-21.35,23.08-5.28,5.54-6.14,5.44-11.44-.11-1.27-1.32-2.42-2.76-3.67-4.09s-2.43-4.37-5-1.85c-2.1,2-4.59,4.24-1.79,7.64,1.59,1.93,3.19,3.84,4.88,5.68,4.28,4.67,4.41,6.87.07,11.55-3.84,4.15-7.68,8.31-11.39,12.58-.33.38-.71.71-1,1.08-3.28,3.59-4.11,7-1.79,8.66,3.75,2.64,6.34-.13,8.5-2.62,3.61-4.15,7.42-8.09,11.12-12.16,5.07-5.57,6.77-5.65,11.64.31,3.48,4.26,7.53,8,10.86,12.4a15.59,15.59,0,0,0,2.47,2.47c1.87,1.56,3.93,2.95,6.22,1s1.91-4.63.28-6.74c-2.94-3.82-6.19-7.41-9.45-11-2.37-2.58-4.5-5.35-6.78-8-2-2.38-2.21-4.91,0-7.19,9-9.37,16.51-20.08,26.78-28.21A40.16,40.16,0,0,1,447.75,59c10.82.16,21.65,0,32.47.05,2.3,0,4.72-.35,6.68,1.38q.09,37.17.24,74.34c0,2.2-.74,3-2.88,2.79a23,23,0,0,0-2.49,0q-82.33,0-164.68-.06c-1.65,0-3.67,1-5-.95,8.18-8.73,15.67-18.05,23.55-27,2.52-2.87,5-2.77,7.6,0,2.06,2.16,4.27,4.2,6.34,6.36,1.82,1.89,3.57,2.41,5.43.16,1.69-2,4-4,1.27-6.83-2.18-2.3-4.42-4.53-6.68-6.74-2.89-2.83-3.13-5.5-.32-8.65,4.21-4.72,8.16-9.66,12.38-14.36A30.42,30.42,0,0,0,365,75a4.09,4.09,0,0,0-.89-5.79c-2-1.73-4-1.3-5.83.31-4.54,4-8,8.92-12,13.32-.56.61-1,1.33-1.55,2-4.76,5.53-6.51,5.49-11.22-.19-4.14-5-9.13-9.2-13.23-14.27-1.89-2.34-4.74-3.61-7.39-1s-1.31,5.07.73,7.45c5,5.82,10.55,11.1,15.39,17,3.58,4.36,3.31,5-.36,9.32-5.47,6.48-11,13-16.64,19.25-6.64,7.37-14.11,13.7-24.3,15.66C286,138.37,284.39,139,282.9,137.69Z"/><path class="cls-14" d="M486.9,60.44c-12.49,0-25,.35-37.46-.06A39.84,39.84,0,0,0,418.1,73C410.23,81.15,402.8,89.7,395,97.92c-1.83,1.94-1,3.06.34,4.55q8.13,9.12,16.17,18.33c3.16,3.62,3.41,7.22.74,9.67s-6.17,2.09-9.5-1.6c-4.91-5.42-9.84-10.84-14.49-16.49-2.29-2.79-3.69-3.36-6.27-.19-4.41,5.4-9.31,10.4-14,15.58-2.78,3.08-5.9,4.46-9.52,1.5-2.78-2.27-2.38-6.13.76-9.62,5.23-5.81,10.4-11.68,15.76-17.36,1.72-1.82,1.9-3,.1-4.81-2.9-3-5.37-6.36-8.31-9.28-2-2-1.95-3.36,0-5.26s3.66-4.18,5.65-6.51c3.61,4.09,7.13,7.85,10.38,11.83,1.77,2.18,2.81,2.44,4.78.1,5.57-6.6,11.34-13.06,17.18-19.43,2.57-2.8,5.52-5.26,8.94-8.49H236.94c-.59-3.91,1-5,5-5q120,.17,240,0C485.86,55.4,487.48,56.53,486.9,60.44Z"/><path class="cls-14" d="M282.9,137.69c11.65-1.19,20.33-7.64,27.83-16,6.22-6.94,12.14-14.13,18.43-21,2-2.21,1.44-3.38-.3-5.22-5.61-5.9-11-12-16.59-18-2.71-2.92-3.72-6-.88-9.28,2.43-2.81,6.24-2.41,9.54,1,4.92,5.18,9.87,10.36,14.46,15.83,2.7,3.22,4.38,3.93,7.27.09,4.1-5.43,8.78-10.42,13.32-15.51,3.38-3.78,6.56-4.25,9.44-1.45,3.23,3.14,2.16,6.25-.4,9.21-5.11,5.91-10.15,11.89-15.39,17.69-1.8,2-2.1,3.33,0,5.27,2.43,2.25,4.31,5.15,6.88,7.21,3.88,3.12,3.12,5.32,0,8.67s-5,4.8-8.34.32c-2.52-3.35-5.37-8.67-9-8.41-3,.22-5.62,5.57-8.34,8.7-4,4.65-7.94,9.4-12,14-2,2.22-3.93,4.51-6.83,5.64-.85.65-1,1.49.15,1.7a29.32,29.32,0,0,0,5,.21H480.12c1.33,0,2.66,0,4,0s2.73.33,2.59,2.2c-.13,1.56-1.33,1.71-2.55,1.74s-2.33,0-3.5,0q-118.68,0-237.38-.09c-2.05,0-6,1.82-5.93-2.06.05-3.21,3.74-1.73,5.76-1.75,11.49-.16,23,0,34.48-.1C279.37,138.43,281.28,139,282.9,137.69Z"/><path class="cls-4" d="M362.14,143.33q59.72,0,119.43.08c1.79,0,4.67-1.65,5.36,1.68a6.76,6.76,0,0,1-2.91,7.44c-2.3,1.55-4.95,1.78-7.64,1.78q-114.44,0-228.87,0c-6.4,0-9.93-2.08-10.6-6.17-.47-2.88-.36-5,3.81-4.88,8.81.31,17.65.09,26.48.09Z"/><path class="cls-4" d="M361.92,54.83q-59.71,0-119.43-.08c-1.91,0-5,1.72-5.61-2a6.86,6.86,0,0,1,3.76-7.49c1.87-1.06,3.86-.91,5.84-.91H477.35c6.54,0,9.67,2.48,9.7,7.4,0,2-.36,3.27-2.7,3.11-1.32-.09-2.66,0-4,0Z"/><path class="cls-15" d="M448.89,128.65c-18.24,0-33.05-14.05-32.86-31.16.18-16.8,15.17-30.9,32.86-30.9,17.87,0,33.1,14.55,32.88,31.4C481.54,115,466.9,128.65,448.89,128.65Z"/><path class="cls-15" d="M277.64,128.65c-18.16,0-32.66-13.56-32.7-30.59,0-17.45,14.41-31.42,32.52-31.47s32.7,13.91,32.66,31.28C310.09,115.07,295.78,128.63,277.64,128.65Z"/><path class="cls-2" d="M448.73,78.09c11.71-.06,20.92,8.39,21.15,19.38s-9.41,20.13-21.07,20.09c-11.44,0-20.89-9-20.9-19.77C427.89,86.85,437.09,78.14,448.73,78.09Z"/><path class="cls-2" d="M277.42,78.09c11.8,0,20.78,8.29,20.89,19.41s-8.86,19.94-20.39,20c-11.94.11-21.11-8.49-21.1-19.8S265.57,78.14,277.42,78.09Z"/></g></g></svg>